mtllib materials.mtl
v -0.1019445 -0.09353507 -0.02749998
v -0.08694448 -0.09353507 -0.02749997
v -0.08694445 0.02646482 -0.02749998
v -0.1019445 0.02646482 -0.02749999
v -0.1019445 -0.09353507 0.03249999
v -0.1019444 0.02646482 0.03250001
v -0.08694445 0.02646482 0.03249999
v -0.08694447 -0.09353507 0.03249998
v -0.06944449 0.2114646 -1.005828E-07
v -0.06944434 0.18467 -0.1000001
v 0.08055548 0.1846699 -0.1000001
v 0.08055548 0.2114648 -1.005828E-07
v -0.06944435 0.1114647 -0.1732052
v 0.08055548 0.1114647 -0.1732051
v -0.06944437 0.01146483 -0.2
v 0.08055548 0.01146483 -0.2
v -0.06944437 -0.08853507 -0.1732051
v 0.08055548 -0.08853519 -0.1732051
v -0.06944439 -0.1617403 -0.1
v 0.08055548 -0.1617403 -0.09999999
v -0.06944439 -0.188535 -3.72529E-09
v 0.08055548 -0.1885351 1.117587E-08
v -0.06944439 -0.1617403 0.1
v 0.08055548 -0.1617401 0.1
v -0.06944437 -0.08853507 0.173205
v 0.08055548 -0.08853507 0.173205
v -0.06944437 0.01146483 0.1999999
v 0.08055548 0.01146483 0.1999999
v -0.06944435 0.1114647 0.173205
v 0.08055548 0.1114649 0.173205
v -0.06944434 0.18467 0.09999979
v 0.08055548 0.18467 0.09999984
v -0.1094445 -0.09353507 -0.04999997
v -0.07944446 -0.09353507 -0.04999997
v -0.07944447 -0.0785352 -0.04999996
v -0.1094444 -0.0785352 -0.04999996
v -0.1094444 -0.09353507 0.04
v -0.1094444 -0.0785352 0.03999998
v -0.07944448 -0.0785352 0.03999997
v -0.07944447 -0.09353507 0.03999997
v -0.1085354 0.1323738 -0.004999988
v -0.1085354 0.1276847 -0.02249998
v -0.08944446 0.1276847 -0.02249998
v -0.08944446 0.1323738 -0.004999988
v -0.1085354 0.1148739 -0.03531086
v -0.08944446 0.1148739 -0.03531086
v -0.1085354 0.09737384 -0.03999997
v -0.08944446 0.09737384 -0.03999997
v -0.1085354 0.0798738 -0.03531086
v -0.08944446 0.0798738 -0.03531086
v -0.1085354 0.06706297 -0.02249998
v -0.08944446 0.06706297 -0.02249998
v -0.1085354 0.06237388 -0.004999984
v -0.08944446 0.06237388 -0.004999984
v -0.1085354 0.06706297 0.01250001
v -0.08944446 0.06706297 0.01250001
v -0.1085354 0.0798738 0.02531088
v -0.08944446 0.0798738 0.02531088
v -0.1085354 0.09737384 0.02999999
v -0.08944446 0.09737384 0.02999999
v -0.1085354 0.1148739 0.02531088
v -0.08944446 0.1148739 0.02531088
v -0.1085354 0.1276847 0.0125
v -0.08944446 0.1276847 0.0125
v -0.1094444 0.01896489 -0.04999995
v -0.07944446 0.01896489 -0.04999994
v -0.07944447 0.03396475 -0.04999994
v -0.1094444 0.03396475 -0.04999994
v -0.1094444 0.01896489 0.03250001
v -0.1094444 0.03396475 0.03250001
v -0.07944445 0.03396475 0.03249998
v -0.07944444 0.01896489 0.0325
v 0.1080555 0.01396465 0.04999997
v 0.07805556 0.01396465 0.04999996
v 0.07805557 0.02896452 0.04999995
v 0.1080555 0.02896452 0.04999997
v 0.1080556 0.01396465 -0.03249998
v 0.1080556 0.02896452 -0.03249998
v 0.07805559 0.02896452 -0.03249997
v 0.07805558 0.01396465 -0.03249999
v 0.1071465 0.1273736 0.00500001
v 0.1071465 0.1226845 0.0225
v 0.08805557 0.1226845 0.0225
v 0.08805557 0.1273736 0.005000006
v 0.1071465 0.1098737 0.03531088
v 0.08805557 0.1098735 0.03531088
v 0.1071465 0.09237361 0.03999998
v 0.08805557 0.09237361 0.03999998
v 0.1071465 0.07487357 0.03531088
v 0.08805557 0.07487357 0.03531088
v 0.1071465 0.06206274 0.0225
v 0.08805557 0.06206274 0.0225
v 0.1071465 0.05737364 0.005000006
v 0.08805557 0.05737364 0.005000006
v 0.1071465 0.06206274 -0.01249999
v 0.08805557 0.06206274 -0.01249999
v 0.1071465 0.07487357 -0.02531086
v 0.08805557 0.07487357 -0.02531086
v 0.1071465 0.09237361 -0.02999997
v 0.08805557 0.09237361 -0.02999997
v 0.1071465 0.1098737 -0.02531086
v 0.08805557 0.1098735 -0.02531086
v 0.1071465 0.1226845 -0.01249997
v 0.08805557 0.1226845 -0.01249997
v 0.1080556 -0.0985353 0.04999999
v 0.07805558 -0.0985353 0.04999997
v 0.07805558 -0.08353543 0.04999997
v 0.1080555 -0.08353543 0.04999998
v 0.1080556 -0.0985353 -0.03999998
v 0.1080556 -0.08353543 -0.03999996
v 0.07805564 -0.08353543 -0.03999996
v 0.07805563 -0.0985353 -0.03999997
v 0.1005556 -0.0985353 0.0275
v 0.08555561 -0.0985353 0.02749998
v 0.08555555 0.02146459 0.02749999
v 0.1005556 0.02146459 0.0275
v 0.1005556 -0.0985353 -0.03249998
v 0.1005556 0.02146459 -0.03249999
v 0.08555558 0.02146459 -0.03249998
v 0.08555563 -0.0985353 -0.03249998
vn -1.192093E-07 0 -1
vn 1.192093E-07 0 1
vn -1.748456E-07 -1 0
vn 1.748456E-07 1 0
vn -1 1.748456E-07 1.192093E-07
vn 1 -1.748456E-07 -1.192093E-07
vn 5.815618E-07 0.9659263 -0.2588171
vn -1.263983E-07 0.7071059 -0.7071078
vn -3.38492E-07 0.2588181 -0.9659261
vn 2.505153E-07 -0.2588186 -0.965926
vn 5.557894E-07 -0.7071062 -0.7071074
vn -9.277779E-07 -0.9659265 -0.2588166
vn 7.548312E-07 -0.9659264 0.258817
vn -9.125012E-09 -0.7071059 0.7071078
vn -2.221159E-07 -0.2588181 0.9659261
vn 2.606578E-07 0.2588186 0.965926
vn -3.280291E-11 0.707107 0.7071066
vn -1.075663E-06 0.9659265 0.2588167
vn -1 0 0
vn 1 0 0
vn -1.192093E-07 0 -1
vn 1.192093E-07 0 1
vn -1.748456E-07 -1 0
vn 1.748456E-07 1 0
vn -1 1.748456E-07 1.192093E-07
vn 1 -1.748456E-07 -1.192093E-07
vn -4.791765E-07 0.9659262 -0.2588179
vn 7.842944E-07 0.7071076 -0.707106
vn -1.125772E-07 0.2588187 -0.9659259
vn 2.136061E-07 -0.2588187 -0.9659259
vn -3.635105E-07 -0.7071077 -0.707106
vn -1.674737E-06 -0.9659262 -0.2588177
vn -2.181974E-07 -0.9659262 0.2588179
vn 8.746873E-07 -0.7071074 0.7071062
vn -1.751041E-07 -0.2588187 0.9659259
vn 2.422991E-07 0.2588187 0.9659259
vn -4.874753E-07 0.707108 0.7071057
vn -1.672851E-06 0.9659262 0.2588178
vn -1 0 0
vn 1 0 0
vn -1.192093E-07 0 -1
vn 1.192093E-07 0 1
vn -1.748456E-07 -1 0
vn 1.748456E-07 1 0
vn -1 1.748456E-07 1.192093E-07
vn 1 -1.748456E-07 -1.192093E-07
vn -3.576279E-07 -1.421085E-14 1
vn 3.576279E-07 1.421085E-14 -1
vn 3.496912E-07 -1 5.684342E-14
vn -3.496912E-07 1 -5.684342E-14
vn 1 3.496911E-07 3.576279E-07
vn -1 -3.496911E-07 -3.576279E-07
vn 3.198156E-07 0.9659262 0.2588179
vn -9.318084E-07 0.7071076 0.707106
vn 1.643654E-08 0.2588187 0.9659259
vn -2.326128E-07 -0.2588187 0.9659259
vn 4.267309E-07 -0.7071076 0.707106
vn 1.803244E-06 -0.9659262 0.2588177
vn 3.775584E-07 -0.9659262 -0.2588179
vn -7.271732E-07 -0.7071074 -0.7071062
vn 2.712448E-07 -0.2588187 -0.9659259
vn -2.232924E-07 0.2588187 -0.9659259
vn 4.242548E-07 0.7071079 -0.7071057
vn 1.544344E-06 0.9659262 -0.2588179
vn 1 1.788139E-07 5.960464E-08
vn -1 -1.788139E-07 -5.960464E-08
vn -3.576279E-07 -1.421085E-14 1
vn 3.576279E-07 1.421085E-14 -1
vn 3.496912E-07 -1 5.684342E-14
vn -3.496912E-07 1 -5.684342E-14
vn 1 3.496911E-07 3.576279E-07
vn -1 -3.496911E-07 -3.576279E-07
vn -3.576279E-07 -1.421085E-14 1
vn 3.576279E-07 1.421085E-14 -1
vn 3.496912E-07 -1 5.684342E-14
vn -3.496912E-07 1 -5.684342E-14
vn 1 3.496911E-07 3.576279E-07
vn -1 -3.496911E-07 -3.576279E-07
vt -0.1244372 0.04964071
vt -0.1237664 0.05098235
vt -0.1344995 0.05634891
vt -0.1351703 0.05500727
vt 0.1244372 0.04964071
vt 0.1351703 0.05500727
vt 0.1344995 0.05634891
vt 0.1237664 0.05098235
vt -0.001664873 -0.01135138
vt 0.003985576 -0.0133694
vt 0.00449008 -0.01195679
vt -0.001160368 -0.009938769
vt 0.001664874 -0.01135138
vt 0.001160368 -0.009938768
vt -0.004490081 -0.01195679
vt -0.003985577 -0.0133694
vt -0.07942617 0.1073257
vt -0.08640102 0.1170905
vt -0.09128342 0.113603
vt -0.08430857 0.1038383
vt 0.07942617 0.1073257
vt 0.08430857 0.1038383
vt 0.09128342 0.113603
vt 0.08640102 0.1170905
vt -0.04452825 -0.01778261
vt -0.03440796 -0.01560101
vt -0.03756883 -0.0009378448
vt -0.04768912 -0.003119428
vt -0.1107798 0.003149848
vt -0.1004794 0.002109346
vt -0.09897188 0.01703338
vt -0.1092722 0.01807388
vt -0.1385011 0.04550018
vt -0.1288577 0.04173414
vt -0.1234011 0.05570644
vt -0.1330446 0.05947248
vt -0.127915 0.06437226
vt -0.1189416 0.05920903
vt -0.1114607 0.07221036
vt -0.120434 0.0773736
vt -0.09262778 0.04678629
vt -0.08377423 0.04142023
vt -0.07599942 0.05424801
vt -0.08485296 0.05961406
vt -0.03741502 0.008894387
vt -0.02806137 0.00445718
vt -0.02163235 0.01800957
vt -0.03098601 0.02244678
vt 0.03440808 -0.01560085
vt 0.04452837 -0.01778243
vt 0.04768924 -0.003119263
vt 0.03756895 -0.00093768
vt 0.1004794 0.002109323
vt 0.1107798 0.003149825
vt 0.1092722 0.01807386
vt 0.09897186 0.01703336
vt 0.1288577 0.04173412
vt 0.1385011 0.04550016
vt 0.1330445 0.05947247
vt 0.1234011 0.05570643
vt 0.1189417 0.059209
vt 0.127915 0.06437223
vt 0.1204341 0.07737359
vt 0.1114607 0.07221035
vt 0.08377416 0.04142014
vt 0.09262772 0.04678621
vt 0.08485291 0.05961398
vt 0.07599936 0.05424792
vt 0.02806119 0.004457403
vt 0.03741483 0.008894587
vt 0.03098582 0.02244699
vt 0.02163217 0.01800979
vt -0.1059716 0.1225533
vt -0.1076736 0.1123414
vt -0.1040417 0.1026467
vt -0.09604888 0.09606677
vt -0.08583698 0.09436478
vt -0.07614223 0.09799679
vt -0.0695623 0.1059895
vt -0.06786032 0.1162015
vt -0.07149231 0.1258962
vt -0.07948507 0.1324761
vt -0.08969698 0.1341781
vt -0.09939173 0.1305461
vt 0.09939174 0.1305461
vt 0.08969698 0.1341781
vt 0.07948507 0.1324761
vt 0.07149231 0.1258962
vt 0.06786032 0.1162014
vt 0.0695623 0.1059895
vt 0.07614222 0.09799678
vt 0.08583699 0.09436479
vt 0.09604888 0.09606677
vt 0.1040417 0.1026467
vt 0.1076736 0.1123414
vt 0.1059716 0.1225533
vt -0.1247726 0.04896989
vt -0.123431 0.05165317
vt -0.1247726 0.05232399
vt -0.1261142 0.04964071
vt 0.1247726 0.04896989
vt 0.1261142 0.04964071
vt 0.1247726 0.05232399
vt 0.123431 0.05165317
vt -0.004036043 -0.01130093
vt 0.004439632 -0.01432796
vt 0.005448638 -0.01150273
vt -0.003027034 -0.008475704
vt 0.004036042 -0.01130093
vt 0.003027034 -0.008475706
vt -0.005448637 -0.01150273
vt -0.004439631 -0.01432796
vt -0.07759527 0.1086335
vt -0.07846712 0.109854
vt -0.08579072 0.1046229
vt -0.08491887 0.1034023
vt 0.07759527 0.1086335
vt 0.08491887 0.1034023
vt 0.08579072 0.1046229
vt 0.07846712 0.109854
vt -0.04123153 -0.02107063
vt -0.03946048 -0.02068886
vt -0.03986277 -0.01882264
vt -0.04163382 -0.01920441
vt -0.1126157 -0.0005939565
vt -0.1108131 -0.0007760409
vt -0.1106213 0.001123383
vt -0.1124238 0.001305468
vt -0.1435543 0.04327692
vt -0.1418667 0.04261786
vt -0.1411722 0.04439615
vt -0.1428598 0.04505521
vt -0.1334677 0.06305728
vt -0.1318974 0.06215371
vt -0.1309453 0.06380843
vt -0.1325156 0.064712
vt -0.09649907 0.04456148
vt -0.09494971 0.04362243
vt -0.09396018 0.04525505
vt -0.09550955 0.04619411
vt -0.03767749 0.004692123
vt -0.03604061 0.003915611
vt -0.03522237 0.005640463
vt -0.03685926 0.006416974
vt 0.03946045 -0.02068897
vt 0.04123151 -0.02107074
vt 0.0416338 -0.01920452
vt 0.03986274 -0.01882274
vt 0.1108131 -0.0007758596
vt 0.1126157 -0.0005937752
vt 0.1124238 0.001305649
vt 0.1106213 0.001123565
vt 0.1418667 0.04261785
vt 0.1435543 0.04327691
vt 0.1428598 0.04505521
vt 0.1411722 0.04439615
vt 0.1318974 0.06215369
vt 0.1334678 0.06305726
vt 0.1325156 0.06471198
vt 0.1309453 0.06380841
vt 0.09494961 0.04362248
vt 0.09649897 0.04456154
vt 0.09550945 0.04619416
vt 0.09396009 0.04525511
vt 0.03604041 0.003916052
vt 0.0376773 0.004692563
vt 0.03685906 0.006417414
vt 0.03522217 0.005640903
vt -0.09553929 0.1230021
vt -0.09583715 0.121215
vt -0.09520154 0.1195184
vt -0.0938028 0.1183669
vt -0.09201573 0.1180691
vt -0.09031914 0.1187047
vt -0.08916766 0.1201034
vt -0.08886981 0.1218905
vt -0.08950541 0.1235871
vt -0.09090415 0.1247386
vt -0.09269123 0.1250364
vt -0.09438781 0.1244008
vt 0.09438781 0.1244008
vt 0.09269123 0.1250364
vt 0.09090415 0.1247386
vt 0.08950541 0.1235871
vt 0.08886981 0.1218905
vt 0.08916766 0.1201034
vt 0.09031914 0.1187047
vt 0.09201573 0.1180691
vt 0.0938028 0.1183669
vt 0.09520154 0.1195184
vt 0.09583715 0.121215
vt 0.09553929 0.1230021
vt -0.1348349 0.05400104
vt -0.1334933 0.05668432
vt -0.1348349 0.05735514
vt -0.1361766 0.05467186
vt 0.1348349 0.05400104
vt 0.1361766 0.05467186
vt 0.1348349 0.05735514
vt 0.1334933 0.05668433
vt -0.004036041 -0.01130093
vt 0.003733326 -0.0140757
vt 0.004742334 -0.01125048
vt -0.003027032 -0.008475708
vt 0.00403604 -0.01130093
vt 0.003027032 -0.008475708
vt -0.004742332 -0.01125048
vt -0.003733326 -0.0140757
vt -0.0841342 0.117788
vt -0.08500604 0.1190085
vt -0.09171934 0.1142133
vt -0.09084749 0.1129927
vt 0.0841342 0.117788
vt 0.09084749 0.1129927
vt 0.09171934 0.1142133
vt 0.08500604 0.1190085
vt 0.1246608 0.07323123
vt 0.1260024 0.07054795
vt 0.127344 0.07121877
vt 0.1260024 0.07390204
vt -0.1246608 0.07323123
vt -0.1260024 0.07390204
vt -0.127344 0.07121877
vt -0.1260024 0.07054795
vt 0.01269671 0.005818665
vt 0.004927347 0.00859344
vt 0.003918338 0.005768217
vt 0.0116877 0.002993441
vt -0.01269671 0.005818663
vt -0.0116877 0.002993443
vt -0.003918339 0.005768218
vt -0.004927347 0.008593441
vt 0.09198102 0.1115686
vt 0.09285288 0.1127892
vt 0.08613957 0.1175844
vt 0.08526773 0.1163638
vt -0.09198102 0.1115686
vt -0.08526773 0.1163638
vt -0.08613958 0.1175844
vt -0.09285288 0.1127892
vt 0.02744364 0.02370956
vt 0.02580675 0.02293305
vt 0.026625 0.0212082
vt 0.02826189 0.02198471
vt 0.08441268 0.06245665
vt 0.08286331 0.06151759
vt 0.08385282 0.05988496
vt 0.0854022 0.06082402
vt 0.1220681 0.08138169
vt 0.1204977 0.08047812
vt 0.1214499 0.0788234
vt 0.1230202 0.07972696
vt 0.1354996 0.06328588
vt 0.133812 0.06262682
vt 0.1345065 0.06084853
vt 0.1361941 0.06150759
vt 0.1107998 0.02090067
vt 0.1089972 0.02071859
vt 0.1091891 0.01881916
vt 0.1109916 0.01900125
vt 0.0465942 -0.0001628385
vt 0.04482315 0.0002189381
vt 0.04442086 -0.001647285
vt 0.04619191 -0.002029062
vt -0.02580672 0.02293314
vt -0.02744361 0.02370965
vt -0.02826184 0.0219848
vt -0.02662496 0.02120829
vt -0.08286344 0.06151745
vt -0.0844128 0.06245651
vt -0.08540232 0.06082388
vt -0.08385296 0.05988482
vt -0.1204977 0.08047812
vt -0.122068 0.08138169
vt -0.1230202 0.07972698
vt -0.1214498 0.0788234
vt -0.133812 0.06262682
vt -0.1354996 0.06328588
vt -0.1361941 0.06150758
vt -0.1345065 0.06084853
vt -0.1089972 0.02071847
vt -0.1107997 0.02090056
vt -0.1109916 0.01900113
vt -0.109189 0.01881905
vt -0.04482307 0.0002184455
vt -0.04659412 -0.0001633315
vt -0.04619183 -0.002029554
vt -0.04442078 -0.001647778
vt 0.09321436 0.1240483
vt 0.09142727 0.1237504
vt 0.09002854 0.1225989
vt 0.08939294 0.1209024
vt 0.08969079 0.1191153
vt 0.09084227 0.1177166
vt 0.09253885 0.1170809
vt 0.09432593 0.1173788
vt 0.09572466 0.1185303
vt 0.09636027 0.1202269
vt 0.09606242 0.1220139
vt 0.09491093 0.1234127
vt -0.09491093 0.1234127
vt -0.09606242 0.1220139
vt -0.09636026 0.1202268
vt -0.09572466 0.1185303
vt -0.09432593 0.1173788
vt -0.09253885 0.1170809
vt -0.09084227 0.1177166
vt -0.08969079 0.1191153
vt -0.08939294 0.1209024
vt -0.09002854 0.1225989
vt -0.09142727 0.1237504
vt -0.09321436 0.1240483
vt 0.1145985 0.06820008
vt 0.1159401 0.0655168
vt 0.1172817 0.06618761
vt 0.1159401 0.06887089
vt -0.1145985 0.06820007
vt -0.1159401 0.06887089
vt -0.1172817 0.06618761
vt -0.1159401 0.0655168
vt 0.01269672 0.005818664
vt 0.00422104 0.008845692
vt 0.003212033 0.006020469
vt 0.0116877 0.002993438
vt -0.01269671 0.005818662
vt -0.0116877 0.00299344
vt -0.003212034 0.00602047
vt -0.004221042 0.008845692
vt 0.08544209 0.1024141
vt 0.08631394 0.1036347
vt 0.07899035 0.1088658
vt 0.0781185 0.1076453
vt -0.08544209 0.1024141
vt -0.0781185 0.1076453
vt -0.07899035 0.1088658
vt -0.08631394 0.1036347
vt 0.1149339 0.06752926
vt 0.1156047 0.06618762
vt 0.1263378 0.07155417
vt 0.125667 0.07289582
vt -0.1149339 0.06752926
vt -0.125667 0.07289582
vt -0.1263378 0.07155417
vt -0.1156047 0.06618762
vt 0.01032554 0.005869116
vt 0.004675095 0.007887134
vt 0.004170591 0.006474523
vt 0.009821038 0.004456504
vt -0.01032555 0.005869117
vt -0.009821039 0.004456503
vt -0.00417059 0.006474522
vt -0.004675095 0.007887136
vt 0.08361119 0.1037219
vt 0.09058605 0.1134867
vt 0.08570366 0.1169741
vt 0.0787288 0.1072093
vt -0.08361119 0.1037219
vt -0.0787288 0.1072093
vt -0.08570366 0.1169741
vt -0.09058605 0.1134867
o group1236340163
g mesh1236340163
usemtl mat9
f 12/28/7 11/27/7 10/26/7 9/25/7
f 11/32/8 14/31/8 13/30/8 10/29/8
f 14/36/9 16/35/9 15/34/9 13/33/9
f 16/40/10 18/39/10 17/38/10 15/37/10
f 18/44/11 20/43/11 19/42/11 17/41/11
f 20/48/12 22/47/12 21/46/12 19/45/12
f 22/52/13 24/51/13 23/50/13 21/49/13
f 24/56/14 26/55/14 25/54/14 23/53/14
f 26/60/15 28/59/15 27/58/15 25/57/15
f 28/64/16 30/63/16 29/62/16 27/61/16
f 30/68/17 32/67/17 31/66/17 29/65/17
f 32/72/18 12/71/18 9/70/18 31/69/18
f 9/84/19 10/83/19 13/82/19 15/81/19 17/80/19 19/79/19 21/78/19 23/77/19 25/76/19 27/75/19 29/74/19 31/73/19
f 32/96/20 30/95/20 28/94/20 26/93/20 24/92/20 22/91/20 20/90/20 18/89/20 16/88/20 14/87/20 11/86/20 12/85/20
o group1333965752
g mesh1333965752
usemtl mat21
f 4/4/1 3/3/1 2/2/1 1/1/1
f 8/8/2 7/7/2 6/6/2 5/5/2
f 2/12/3 8/11/3 5/10/3 1/9/3
f 6/16/4 7/15/4 3/14/4 4/13/4
f 5/20/5 6/19/5 4/18/5 1/17/5
f 3/24/6 7/23/6 8/22/6 2/21/6
f 36/100/21 35/99/21 34/98/21 33/97/21
f 40/104/22 39/103/22 38/102/22 37/101/22
f 34/108/23 40/107/23 37/106/23 33/105/23
f 38/112/24 39/111/24 35/110/24 36/109/24
f 37/116/25 38/115/25 36/114/25 33/113/25
f 35/120/26 39/119/26 40/118/26 34/117/26
f 44/124/27 43/123/27 42/122/27 41/121/27
f 43/128/28 46/127/28 45/126/28 42/125/28
f 46/132/29 48/131/29 47/130/29 45/129/29
f 48/136/30 50/135/30 49/134/30 47/133/30
f 50/140/31 52/139/31 51/138/31 49/137/31
f 52/144/32 54/143/32 53/142/32 51/141/32
f 54/148/33 56/147/33 55/146/33 53/145/33
f 56/152/34 58/151/34 57/150/34 55/149/34
f 58/156/35 60/155/35 59/154/35 57/153/35
f 60/160/36 62/159/36 61/158/36 59/157/36
f 62/164/37 64/163/37 63/162/37 61/161/37
f 64/168/38 44/167/38 41/166/38 63/165/38
f 41/180/39 42/179/39 45/178/39 47/177/39 49/176/39 51/175/39 53/174/39 55/173/39 57/172/39 59/171/39 61/170/39 63/169/39
f 64/192/40 62/191/40 60/190/40 58/189/40 56/188/40 54/187/40 52/186/40 50/185/40 48/184/40 46/183/40 43/182/40 44/181/40
f 68/196/41 67/195/41 66/194/41 65/193/41
f 72/200/42 71/199/42 70/198/42 69/197/42
f 66/204/43 72/203/43 69/202/43 65/201/43
f 70/208/44 71/207/44 67/206/44 68/205/44
f 69/212/45 70/211/45 68/210/45 65/209/45
f 67/216/46 71/215/46 72/214/46 66/213/46
o group1771391850
g mesh1771391850
usemtl mat21
f 76/220/47 75/219/47 74/218/47 73/217/47
f 80/224/48 79/223/48 78/222/48 77/221/48
f 74/228/49 80/227/49 77/226/49 73/225/49
f 78/232/50 79/231/50 75/230/50 76/229/50
f 77/236/51 78/235/51 76/234/51 73/233/51
f 75/240/52 79/239/52 80/238/52 74/237/52
f 84/244/53 83/243/53 82/242/53 81/241/53
f 83/248/54 86/247/54 85/246/54 82/245/54
f 86/252/55 88/251/55 87/250/55 85/249/55
f 88/256/56 90/255/56 89/254/56 87/253/56
f 90/260/57 92/259/57 91/258/57 89/257/57
f 92/264/58 94/263/58 93/262/58 91/261/58
f 94/268/59 96/267/59 95/266/59 93/265/59
f 96/272/60 98/271/60 97/270/60 95/269/60
f 98/276/61 100/275/61 99/274/61 97/273/61
f 100/280/62 102/279/62 101/278/62 99/277/62
f 102/284/63 104/283/63 103/282/63 101/281/63
f 104/288/64 84/287/64 81/286/64 103/285/64
f 81/300/65 82/299/65 85/298/65 87/297/65 89/296/65 91/295/65 93/294/65 95/293/65 97/292/65 99/291/65 101/290/65 103/289/65
f 104/312/66 102/311/66 100/310/66 98/309/66 96/308/66 94/307/66 92/306/66 90/305/66 88/304/66 86/303/66 83/302/66 84/301/66
f 108/316/67 107/315/67 106/314/67 105/313/67
f 112/320/68 111/319/68 110/318/68 109/317/68
f 106/324/69 112/323/69 109/322/69 105/321/69
f 110/328/70 111/327/70 107/326/70 108/325/70
f 109/332/71 110/331/71 108/330/71 105/329/71
f 107/336/72 111/335/72 112/334/72 106/333/72
f 116/340/73 115/339/73 114/338/73 113/337/73
f 120/344/74 119/343/74 118/342/74 117/341/74
f 114/348/75 120/347/75 117/346/75 113/345/75
f 118/352/76 119/351/76 115/350/76 116/349/76
f 117/356/77 118/355/77 116/354/77 113/353/77
f 115/360/78 119/359/78 120/358/78 114/357/78
